<?xml version="1.0" encoding="UTF-8" standalone="no"?><!DOCTYPE svg PUBLIC "-//W3C//DTD SVG 1.1//EN" "http://www.w3.org/Graphics/SVG/1.1/DTD/svg11.dtd"><svg width="100%" height="100%" viewBox="0 0 4900 1684" version="1.1" xmlns="http://www.w3.org/2000/svg" xmlns:xlink="http://www.w3.org/1999/xlink" xml:space="preserve" xmlns:serif="http://www.serif.com/" style="fill-rule:evenodd;clip-rule:evenodd;stroke-linejoin:round;stroke-miterlimit:2;"><rect id="Page-1" serif:id="Page 1" x="0" y="4.632" width="4895.62" height="1670.58" style="fill:none;"/><path d="M1350.53,699.605c-0.204,-0.308 -0.408,-0.62 -0.616,-0.928c-102.382,-154.686 -275.844,-246.555 -461.62,-207.602c-227.621,47.728 -372.98,272.021 -324.395,500.561c48.58,228.537 272.827,375.335 500.449,327.603c71.47,-14.986 134.832,-47.382 186.629,-91.852c-79.638,101.916 -194.122,177.243 -330.39,205.817c-308.091,64.597 -611.609,-134.089 -677.364,-443.419c-65.758,-309.331 130.985,-612.916 439.071,-677.513c290.068,-60.82 580.885,108.776 668.236,387.333" style="fill:#0084b0;"/><path d="M1121.55,1572.07c-73.592,28.615 -152.676,46.942 -235.592,53.076c-443.868,32.835 -830.543,-296.134 -862.947,-734.165c-32.403,-438.031 301.657,-820.313 745.525,-853.151c318.08,-23.527 592.534,139.788 742.544,394.838c-140.266,-141.606 -315.945,-225.599 -547.773,-208.45c-420.108,31.078 -681.091,355.502 -653.441,729.272c27.65,373.77 365.341,653.902 753.639,625.178c19.608,-1.451 38.974,-3.661 58.045,-6.598Z" style="fill:#a2b9cb;"/><path d="M170.502,371.174c-39.617,106.738 -57.462,223.427 -48.522,344.273c33.308,450.246 425.887,788.745 876.133,755.437c230.704,-17.066 432.069,-128.459 569.123,-293.629c-59.472,131.167 -154.877,248.177 -283.132,335.008c-370.521,250.835 -875.829,155.425 -1127.71,-212.931c-197.504,-288.833 -180.923,-660.265 14.108,-928.158Z" style="fill:#183859;"/><path d="M802.119,1139.64l190.327,-0c172.484,-0 264.674,-113.004 264.674,-260.209c-0,-142.001 -89.96,-251.29 -257.239,-251.29l-197.762,0l-0,511.499Zm99.623,-421.539l93.679,-0c109.288,-0 160.585,73.6 160.585,164.304c0,92.93 -52.786,167.28 -163.56,167.28l-90.704,-0l0,-331.584Z" style="fill:url(#_Linear1);fill-rule:nonzero;"/><path d="M1475.01,938.908l71.371,-215.602l69.886,215.602l-141.257,0Zm278.474,406.724l1071.88,0l0,-79.096l-994.948,-0l-217.129,-638.394l-129.362,0l-176.519,512.635l103.043,-0l37.048,-117.859l196.273,0l109.709,322.714Z" style="fill:url(#_Linear2);fill-rule:nonzero;"/><path d="M2227.78,628.142l-399.236,0l-23.793,90.704l171.739,0l0,420.795l99.624,-0l0,-420.795l151.666,0l-0,-90.704Z" style="fill:url(#_Linear3);fill-rule:nonzero;"/><path d="M2251.23,1139.64l101.109,-0l38.663,-116.723l196.273,0l37.917,116.723l105.569,-0l-173.969,-511.499l-129.362,0l-176.2,511.499Zm167.28,-200.733l71.371,-215.602l69.885,215.602l-141.256,0Z" style="fill:url(#_Linear4);fill-rule:nonzero;"/><path d="M2826.6,1139.64l99.624,-0l-0,-212.627l167.279,-0l23.789,-89.96l-191.068,0l-0,-118.208l221.551,0l24.533,-90.704l-345.708,0l-0,511.499Z" style="fill:url(#_Linear5);fill-rule:nonzero;"/><path d="M3263.9,1139.64l312.255,-0l23.048,-90.7l-235.68,0l0,-420.799l-99.623,0l-0,511.499Z" style="fill:url(#_Linear6);fill-rule:nonzero;"/><path d="M3889.68,706.207c114.489,0 174.73,86.985 174.73,176.199c0,91.445 -60.241,179.174 -174.73,179.174c-114.493,0 -174.714,-87.729 -174.714,-179.174c-0,-89.214 60.221,-176.199 174.714,-176.199Zm-0,-91.449c-180.663,0 -276.568,125.647 -276.568,267.648c0,143.487 95.905,270.619 276.568,270.619c180.68,-0 276.576,-127.132 276.576,-270.619c-0,-142.001 -95.896,-267.648 -276.576,-267.648Z" style="fill:url(#_Linear7);fill-rule:nonzero;"/><path d="M4329.46,1139.64l112.996,-0l101.096,-364.293l99.641,364.293l115.241,-0l116.74,-511.499l-103.343,0l-75.844,370.987l-98.891,-370.987l-101.846,0l-99.64,370.987l-75.094,-370.987l-106.297,0l115.241,511.499Z" style="fill:url(#_Linear8);fill-rule:nonzero;"/><path d="M2889.43,1529.34c16.143,33.99 58.295,61.331 106.901,61.331c52.978,-0 97.41,-31.709 97.41,-88.103c0,-45.76 -29.43,-70.634 -94.182,-93.612c-45.19,-16.138 -65.126,-35.696 -65.126,-62.468c-0,-29.052 21.833,-55.636 60.57,-55.636c29.244,-0 51.456,15.189 62.472,30.761l18.035,-14.619c-12.152,-20.128 -41.204,-41.396 -79.937,-41.396c-51.646,0 -87.725,35.318 -87.725,81.077c0,37.219 25.254,64.939 77.853,83.74c58.291,21.076 78.988,39.873 78.988,73.102c0,40.064 -33.42,61.71 -69.686,61.71c-35.695,0 -68.737,-20.698 -85.823,-49.179l-19.75,13.292Z" style="fill:url(#_Linear9);fill-rule:nonzero;"/><path d="M3304.13,1584.59l0,-24.494l-129.691,0l0,-120.192l125.131,-0l0,-24.496l-125.131,-0l0,-119.623l129.691,0l0,-24.496l-157.411,0l0,313.301l157.411,-0Z" style="fill:url(#_Linear10);fill-rule:nonzero;"/><path d="M3498.96,1590.67c39.307,-0 74.625,-11.962 100.827,-32.471l-14.241,-22.403c-22.217,17.848 -52.217,27.533 -84.684,27.533c-80.89,-0 -122.273,-59.244 -122.273,-135.195c-0,-75.951 41.383,-135.195 122.273,-135.195c32.467,0 62.467,9.686 84.684,27.534l14.241,-22.404c-26.202,-20.51 -61.52,-32.472 -100.827,-32.472c-94.747,0 -150.563,70.635 -150.563,162.537c0,91.902 55.816,162.536 150.563,162.536Z" style="fill:url(#_Linear11);fill-rule:nonzero;"/><path d="M3755.94,1590.67c71.013,-0 108.04,-40.825 108.04,-118.295l0,-201.082l-27.72,0l0,195.195c0,64.939 -26.585,96.841 -80.32,96.841c-53.543,-0 -80.319,-31.902 -80.319,-96.841l-0,-195.195l-27.721,0l0,201.082c0,77.47 37.214,118.295 108.04,118.295Z" style="fill:url(#_Linear12);fill-rule:nonzero;"/><path d="M3931.86,1271.29l-0,313.301l27.708,-0l-0,-133.486l40.272,-0l83.748,133.486l28.29,-0l-85.287,-135.762c50.34,-4.369 85.287,-36.27 85.287,-88.295c0,-54.114 -37.818,-89.244 -99.682,-89.244l-80.336,0Zm27.708,22.595l46.138,-0c49.217,-0 77.882,26.206 77.882,66.649c-0,40.634 -28.665,66.836 -77.882,66.836l-46.138,-0l-0,-133.485Z" style="fill:url(#_Linear13);fill-rule:nonzero;"/><path d="M4186.43,1584.59l27.722,-0l-0,-313.3l-27.722,0l-0,313.3Z" style="fill:url(#_Linear14);fill-rule:nonzero;"/><path d="M4363,1296.54l-0,288.048l27.749,-0l0,-288.048l96.229,0l0,-25.253l-220.249,0l0,25.253l96.271,0Z" style="fill:url(#_Linear15);fill-rule:nonzero;"/><path d="M4626.26,1449.02l-0,135.575l27.749,-0l0,-135.575l107.462,-177.726l-33.407,0l-87.95,147.917l-87.908,-147.917l-33.408,0l107.462,177.726Z" style="fill:url(#_Linear16);fill-rule:nonzero;"/><defs><linearGradient id="_Linear1" x1="0" y1="0" x2="1" y2="0" gradientUnits="userSpaceOnUse" gradientTransform="matrix(21.6016,1056.05,-533.503,10.9129,2903.96,498.68)"><stop offset="0" style="stop-color:#a2b9cb;stop-opacity:1"/><stop offset="0.28" style="stop-color:#0084b0;stop-opacity:1"/><stop offset="0.7" style="stop-color:#0f5278;stop-opacity:1"/><stop offset="1" style="stop-color:#183859;stop-opacity:1"/></linearGradient><linearGradient id="_Linear2" x1="0" y1="0" x2="1" y2="0" gradientUnits="userSpaceOnUse" gradientTransform="matrix(21.6016,1056.05,-533.503,10.9129,2903.96,498.68)"><stop offset="0" style="stop-color:#a2b9cb;stop-opacity:1"/><stop offset="0.28" style="stop-color:#0084b0;stop-opacity:1"/><stop offset="0.7" style="stop-color:#0f5278;stop-opacity:1"/><stop offset="1" style="stop-color:#183859;stop-opacity:1"/></linearGradient><linearGradient id="_Linear3" x1="0" y1="0" x2="1" y2="0" gradientUnits="userSpaceOnUse" gradientTransform="matrix(21.6016,1056.05,-533.503,10.9129,2903.96,498.68)"><stop offset="0" style="stop-color:#a2b9cb;stop-opacity:1"/><stop offset="0.28" style="stop-color:#0084b0;stop-opacity:1"/><stop offset="0.7" style="stop-color:#0f5278;stop-opacity:1"/><stop offset="1" style="stop-color:#183859;stop-opacity:1"/></linearGradient><linearGradient id="_Linear4" x1="0" y1="0" x2="1" y2="0" gradientUnits="userSpaceOnUse" gradientTransform="matrix(21.6016,1056.05,-533.503,10.9129,2903.96,498.68)"><stop offset="0" style="stop-color:#a2b9cb;stop-opacity:1"/><stop offset="0.28" style="stop-color:#0084b0;stop-opacity:1"/><stop offset="0.7" style="stop-color:#0f5278;stop-opacity:1"/><stop offset="1" style="stop-color:#183859;stop-opacity:1"/></linearGradient><linearGradient id="_Linear5" x1="0" y1="0" x2="1" y2="0" gradientUnits="userSpaceOnUse" gradientTransform="matrix(21.6016,1056.05,-533.503,10.9129,2903.96,498.68)"><stop offset="0" style="stop-color:#a2b9cb;stop-opacity:1"/><stop offset="0.28" style="stop-color:#0084b0;stop-opacity:1"/><stop offset="0.7" style="stop-color:#0f5278;stop-opacity:1"/><stop offset="1" style="stop-color:#183859;stop-opacity:1"/></linearGradient><linearGradient id="_Linear6" x1="0" y1="0" x2="1" y2="0" gradientUnits="userSpaceOnUse" gradientTransform="matrix(21.6016,1056.05,-533.503,10.9129,2903.96,498.68)"><stop offset="0" style="stop-color:#a2b9cb;stop-opacity:1"/><stop offset="0.28" style="stop-color:#0084b0;stop-opacity:1"/><stop offset="0.7" style="stop-color:#0f5278;stop-opacity:1"/><stop offset="1" style="stop-color:#183859;stop-opacity:1"/></linearGradient><linearGradient id="_Linear7" x1="0" y1="0" x2="1" y2="0" gradientUnits="userSpaceOnUse" gradientTransform="matrix(21.6016,1056.05,-533.503,10.9129,2903.96,498.68)"><stop offset="0" style="stop-color:#a2b9cb;stop-opacity:1"/><stop offset="0.28" style="stop-color:#0084b0;stop-opacity:1"/><stop offset="0.7" style="stop-color:#0f5278;stop-opacity:1"/><stop offset="1" style="stop-color:#183859;stop-opacity:1"/></linearGradient><linearGradient id="_Linear8" x1="0" y1="0" x2="1" y2="0" gradientUnits="userSpaceOnUse" gradientTransform="matrix(21.6016,1056.05,-533.503,10.9129,2903.96,498.68)"><stop offset="0" style="stop-color:#a2b9cb;stop-opacity:1"/><stop offset="0.28" style="stop-color:#0084b0;stop-opacity:1"/><stop offset="0.7" style="stop-color:#0f5278;stop-opacity:1"/><stop offset="1" style="stop-color:#183859;stop-opacity:1"/></linearGradient><linearGradient id="_Linear9" x1="0" y1="0" x2="1" y2="0" gradientUnits="userSpaceOnUse" gradientTransform="matrix(21.6016,1056.05,-533.503,10.9129,2903.96,498.68)"><stop offset="0" style="stop-color:#a2b9cb;stop-opacity:1"/><stop offset="0.28" style="stop-color:#0084b0;stop-opacity:1"/><stop offset="0.7" style="stop-color:#0f5278;stop-opacity:1"/><stop offset="1" style="stop-color:#183859;stop-opacity:1"/></linearGradient><linearGradient id="_Linear10" x1="0" y1="0" x2="1" y2="0" gradientUnits="userSpaceOnUse" gradientTransform="matrix(21.6016,1056.05,-533.503,10.9129,2903.96,498.68)"><stop offset="0" style="stop-color:#a2b9cb;stop-opacity:1"/><stop offset="0.28" style="stop-color:#0084b0;stop-opacity:1"/><stop offset="0.7" style="stop-color:#0f5278;stop-opacity:1"/><stop offset="1" style="stop-color:#183859;stop-opacity:1"/></linearGradient><linearGradient id="_Linear11" x1="0" y1="0" x2="1" y2="0" gradientUnits="userSpaceOnUse" gradientTransform="matrix(21.6016,1056.05,-533.503,10.9129,2903.96,498.68)"><stop offset="0" style="stop-color:#a2b9cb;stop-opacity:1"/><stop offset="0.28" style="stop-color:#0084b0;stop-opacity:1"/><stop offset="0.7" style="stop-color:#0f5278;stop-opacity:1"/><stop offset="1" style="stop-color:#183859;stop-opacity:1"/></linearGradient><linearGradient id="_Linear12" x1="0" y1="0" x2="1" y2="0" gradientUnits="userSpaceOnUse" gradientTransform="matrix(21.6016,1056.05,-533.503,10.9129,2903.96,498.68)"><stop offset="0" style="stop-color:#a2b9cb;stop-opacity:1"/><stop offset="0.28" style="stop-color:#0084b0;stop-opacity:1"/><stop offset="0.7" style="stop-color:#0f5278;stop-opacity:1"/><stop offset="1" style="stop-color:#183859;stop-opacity:1"/></linearGradient><linearGradient id="_Linear13" x1="0" y1="0" x2="1" y2="0" gradientUnits="userSpaceOnUse" gradientTransform="matrix(21.6016,1056.05,-533.503,10.9129,2903.96,498.68)"><stop offset="0" style="stop-color:#a2b9cb;stop-opacity:1"/><stop offset="0.28" style="stop-color:#0084b0;stop-opacity:1"/><stop offset="0.7" style="stop-color:#0f5278;stop-opacity:1"/><stop offset="1" style="stop-color:#183859;stop-opacity:1"/></linearGradient><linearGradient id="_Linear14" x1="0" y1="0" x2="1" y2="0" gradientUnits="userSpaceOnUse" gradientTransform="matrix(21.6016,1056.05,-533.503,10.9129,2903.96,498.68)"><stop offset="0" style="stop-color:#a2b9cb;stop-opacity:1"/><stop offset="0.28" style="stop-color:#0084b0;stop-opacity:1"/><stop offset="0.7" style="stop-color:#0f5278;stop-opacity:1"/><stop offset="1" style="stop-color:#183859;stop-opacity:1"/></linearGradient><linearGradient id="_Linear15" x1="0" y1="0" x2="1" y2="0" gradientUnits="userSpaceOnUse" gradientTransform="matrix(21.6016,1056.05,-533.503,10.9129,2903.96,498.68)"><stop offset="0" style="stop-color:#a2b9cb;stop-opacity:1"/><stop offset="0.28" style="stop-color:#0084b0;stop-opacity:1"/><stop offset="0.7" style="stop-color:#0f5278;stop-opacity:1"/><stop offset="1" style="stop-color:#183859;stop-opacity:1"/></linearGradient><linearGradient id="_Linear16" x1="0" y1="0" x2="1" y2="0" gradientUnits="userSpaceOnUse" gradientTransform="matrix(21.6016,1056.05,-533.503,10.9129,2903.96,498.68)"><stop offset="0" style="stop-color:#a2b9cb;stop-opacity:1"/><stop offset="0.28" style="stop-color:#0084b0;stop-opacity:1"/><stop offset="0.7" style="stop-color:#0f5278;stop-opacity:1"/><stop offset="1" style="stop-color:#183859;stop-opacity:1"/></linearGradient></defs></svg>