<svg width="256" height="256" viewBox="0 0 256 256" fill="none" xmlns="http://www.w3.org/2000/svg">
<path d="M91.9311 168.236C98.7055 161.476 98.7055 150.516 91.9311 143.756C85.1567 136.996 74.1733 136.996 67.3989 143.756C60.6245 150.516 60.6245 161.476 67.3989 168.236C74.1733 174.996 85.1567 174.996 91.9311 168.236Z" fill="#2D1EE5"/>
<path d="M185.033 114.994C193.319 110.195 196.138 99.6017 191.329 91.3333C186.52 83.0649 175.904 80.2523 167.618 85.0511C159.332 89.8499 156.514 100.443 161.323 108.711C166.132 116.98 176.747 119.792 185.033 114.994Z" fill="#2D1EE5"/>
<path d="M195.95 133.745C190.363 136.977 187.271 142.845 187.312 148.86C187.134 149.998 186.227 154.141 182.227 156.715L174.497 161.192C169.564 163.747 164.855 161.587 164.855 161.587L164.896 161.663C159.71 158.729 153.145 158.536 147.62 161.738C142.12 164.925 139.032 170.667 138.982 176.585C138.972 176.722 138.46 181.78 133.842 184.744L125.543 189.55C123.039 190.673 120.636 190.637 118.933 190.349C118.198 188.781 117.514 186.469 117.934 183.748L126.121 152.345H126.141C127.622 146.674 132.823 144.641 132.823 144.641H132.813C134.146 144.251 135.454 143.705 136.711 142.977C144.994 138.176 147.812 127.584 143.007 119.318C142.216 117.963 141.268 116.754 140.198 115.696C139.732 115.099 137.187 111.594 137.978 106.879L146.119 75.6587H146.124C147.605 69.9882 152.806 67.9497 152.806 67.9497H152.795C154.134 67.5602 155.447 67.0088 156.704 66.2804C164.987 61.4799 167.805 50.8875 163 42.622C158.189 34.3565 147.574 31.544 139.291 36.3394C133.71 39.5718 130.612 45.4345 130.653 51.449C130.481 52.5821 129.568 56.7452 125.548 59.325L117.863 63.7764C112.926 66.3461 108.196 64.1811 108.196 64.1811L108.242 64.257C103.056 61.3231 96.4915 61.1309 90.9661 64.3329C85.4406 67.5349 82.3788 73.256 82.3281 79.1744C82.318 79.2654 81.8263 84.3745 77.1677 87.3488L69.5081 91.7851C64.5656 94.3699 59.8258 92.1948 59.8258 92.1948C54.6502 89.3115 48.1261 89.1395 42.631 92.3263C34.3479 97.1217 31.5294 107.714 36.3401 115.98C41.1508 124.245 51.7658 127.058 60.0489 122.262C65.549 119.075 68.6362 113.339 68.6868 107.421C68.6868 107.421 69.1481 102.246 73.8321 99.2514L81.5221 94.7999C86.3632 92.2707 91.0066 94.3143 91.1689 94.3902C96.3445 97.2836 102.874 97.4607 108.374 94.2738C113.904 91.0718 116.991 85.29 117.012 79.3413L117.052 79.4172C117.052 79.4172 117.514 74.2272 122.213 71.2377L129.872 66.8014C132.544 65.4002 135.155 65.3901 136.99 65.6835C137.74 67.2718 138.46 69.6493 138.008 72.4567L129.847 103.748C128.362 109.439 123.186 111.366 123.186 111.366H123.211C121.868 111.761 120.545 112.312 119.283 113.046C111 117.846 108.181 128.439 112.987 136.704C113.767 138.045 114.7 139.238 115.75 140.28H115.739C115.739 140.28 118.806 143.953 118.041 149.047L109.844 180.475H109.834C108.455 185.751 103.908 187.789 103.254 188.058C101.895 188.442 100.562 188.998 99.2847 189.742C91.0016 194.542 88.1831 205.135 92.9887 213.4C97.7994 221.666 108.414 224.478 116.697 219.683C122.208 216.491 125.295 210.735 125.335 204.806C125.417 204.108 126.126 199.434 130.491 196.672L138.155 192.231C143.022 189.676 147.701 191.755 147.828 191.811C153.003 194.704 159.527 194.876 165.027 191.689C170.558 188.487 173.645 182.706 173.665 176.757L173.711 176.833C173.711 176.833 174.172 171.628 178.892 168.638L186.511 164.227C190.754 161.991 194.855 163.276 195.929 163.691C201.141 166.711 207.776 166.933 213.357 163.701C221.641 158.901 224.459 148.308 219.653 140.043C214.848 131.777 204.228 128.965 195.945 133.76L195.95 133.745Z" fill="#2D1EE5"/>
</svg>
