<?xml version="1.0" encoding="UTF-8" standalone="no"?><!DOCTYPE svg PUBLIC "-//W3C//DTD SVG 1.1//EN" "http://www.w3.org/Graphics/SVG/1.1/DTD/svg11.dtd"><svg width="100%" height="100%" viewBox="0 0 1929 642" version="1.1" xmlns="http://www.w3.org/2000/svg" xmlns:xlink="http://www.w3.org/1999/xlink" xml:space="preserve" xmlns:serif="http://www.serif.com/" style="fill-rule:evenodd;clip-rule:evenodd;stroke-linejoin:round;stroke-miterlimit:2;"><g><path d="M529.772,263.602c-0.081,-0.123 -0.163,-0.246 -0.244,-0.369c-40.645,-61.406 -109.504,-97.877 -183.254,-82.413c-90.361,18.947 -148.065,107.987 -128.778,198.712c19.286,90.725 108.306,148.999 198.667,130.052c28.374,-5.949 53.527,-18.809 74.089,-36.464c-31.615,40.46 -77.063,70.362 -131.159,81.705c-122.305,25.645 -242.795,-53.23 -268.899,-176.028c-26.105,-122.797 51.998,-243.313 174.303,-268.958c115.15,-24.145 230.599,43.183 265.275,153.763" style="fill:#0084b0;"/><path d="M438.873,609.952c-29.215,11.36 -60.609,18.635 -93.525,21.07c-176.207,13.035 -329.709,-117.558 -342.572,-291.447c-12.864,-173.889 119.751,-325.648 295.958,-338.683c126.27,-9.341 235.223,55.492 294.774,156.741c-55.683,-56.214 -125.424,-89.557 -217.454,-82.749c-166.775,12.337 -270.38,141.126 -259.404,289.504c10.977,148.379 145.034,259.586 299.179,248.184c7.785,-0.576 15.472,-1.454 23.044,-2.62Z" style="fill:#a2b9cb;"/><path d="M61.325,133.222c-15.727,42.372 -22.811,88.696 -19.262,136.669c13.222,178.738 169.068,313.115 347.806,299.893c91.585,-6.775 171.523,-50.997 225.93,-116.564c-23.61,52.07 -61.482,98.52 -112.398,132.989c-147.088,99.577 -347.685,61.702 -447.677,-84.528c-78.404,-114.66 -71.822,-262.112 5.601,-368.459Z" style="fill:#183859;"/></g><path d="M312.064,438.288l75.556,-0c68.472,-0 105.069,-44.861 105.069,-103.298c-0,-56.372 -35.712,-99.757 -102.118,-99.757l-78.507,-0l0,203.055Zm39.549,-167.343l37.187,-0c43.385,-0 63.75,29.218 63.75,65.225c0,36.892 -20.955,66.406 -64.93,66.406l-36.007,0l-0,-131.631Z" style="fill:#a2b9cb;fill-rule:nonzero;"/><path d="M579.185,358.601l28.334,-85.59l27.743,85.59l-56.077,-0Zm110.549,161.461l425.515,-0l0,-31.401l-394.973,0l-86.195,-253.428l-51.354,-0l-70.076,203.504l40.907,0l14.707,-46.786l77.917,0l43.552,128.111Z" style="fill:#a2b9cb;fill-rule:nonzero;"/><path d="M878.023,235.233l-158.489,-0l-9.444,36.007l68.177,-0l-0,167.048l39.548,-0l0,-167.048l60.208,-0l0,-36.007Z" style="fill:#a2b9cb;fill-rule:nonzero;"/><path d="M887.331,438.288l40.139,-0l15.347,-46.337l77.916,0l15.052,46.337l41.91,-0l-69.062,-203.055l-51.354,-0l-69.948,203.055Zm66.406,-79.687l28.333,-85.59l27.743,85.59l-56.076,-0Z" style="fill:#a2b9cb;fill-rule:nonzero;"/><path d="M1115.74,438.288l39.548,-0l0,-84.41l66.406,0l9.445,-35.711l-75.851,-0l0,-46.927l87.951,-0l9.74,-36.007l-137.239,-0l-0,203.055Z" style="fill:#a2b9cb;fill-rule:nonzero;"/><path d="M1289.34,438.288l123.958,-0l9.149,-36.007l-93.559,-0l0,-167.048l-39.548,-0l-0,203.055Z" style="fill:#a2b9cb;fill-rule:nonzero;"/><path d="M1537.76,266.222c45.451,0 69.358,34.531 69.358,69.948c-0,36.302 -23.907,71.128 -69.358,71.128c-45.451,0 -69.357,-34.826 -69.357,-71.128c-0,-35.417 23.906,-69.948 69.357,-69.948Zm0,-36.302c-71.718,0 -109.791,49.879 -109.791,106.25c-0,56.962 38.073,107.43 109.791,107.43c71.719,0 109.792,-50.468 109.792,-107.43c-0,-56.371 -38.073,-106.25 -109.792,-106.25Z" style="fill:#a2b9cb;fill-rule:nonzero;"/><path d="M1712.34,438.288l44.861,-0l40.139,-144.618l39.548,144.618l45.747,-0l46.336,-203.055l-41.024,-0l-30.104,147.274l-39.253,-147.274l-40.434,-0l-39.549,147.274l-29.809,-147.274l-42.204,-0l45.746,203.055Z" style="fill:#a2b9cb;fill-rule:nonzero;"/><path d="M1140.68,592.988c6.407,13.493 23.141,24.347 42.438,24.347c21.03,0 38.669,-12.588 38.669,-34.975c-0,-18.166 -11.684,-28.04 -37.388,-37.161c-17.94,-6.407 -25.854,-14.171 -25.854,-24.799c-0,-11.533 8.668,-22.086 24.045,-22.086c11.609,-0 20.428,6.03 24.8,12.211l7.161,-5.804c-4.825,-7.99 -16.357,-16.432 -31.735,-16.432c-20.502,-0 -34.824,14.02 -34.824,32.186c-0,14.774 10.025,25.779 30.905,33.241c23.141,8.367 31.357,15.83 31.357,29.021c-0,15.905 -13.266,24.498 -27.664,24.498c-14.171,-0 -27.286,-8.216 -34.07,-19.523l-7.84,5.276Z" style="fill:#a2b9cb;fill-rule:nonzero;"/><path d="M1305.31,614.923l0,-9.723l-51.483,-0l0,-47.715l49.674,0l0,-9.723l-49.674,-0l0,-47.488l51.483,-0l0,-9.724l-62.488,-0l0,124.373l62.488,0Z" style="fill:#a2b9cb;fill-rule:nonzero;"/><path d="M1382.65,617.335c15.603,0 29.623,-4.748 40.026,-12.889l-5.654,-8.895c-8.819,7.086 -20.729,10.93 -33.618,10.93c-32.111,-0 -48.54,-23.518 -48.54,-53.669c0,-30.151 16.429,-53.669 48.54,-53.669c12.889,-0 24.799,3.844 33.618,10.93l5.654,-8.895c-10.403,-8.141 -24.423,-12.889 -40.026,-12.889c-37.614,-0 -59.771,28.04 -59.771,64.523c0,36.483 22.157,64.523 59.771,64.523Z" style="fill:#a2b9cb;fill-rule:nonzero;"/><path d="M1484.67,617.335c28.191,0 42.89,-16.206 42.89,-46.96l-0,-79.825l-11.005,-0l-0,77.488c-0,25.779 -10.553,38.443 -31.885,38.443c-21.257,-0 -31.885,-12.664 -31.885,-38.443l0,-77.488l-11.005,-0l-0,79.825c-0,30.754 14.774,46.96 42.89,46.96Z" style="fill:#a2b9cb;fill-rule:nonzero;"/><path d="M1554.51,490.55l-0,124.373l11.005,0l-0,-52.99l15.977,-0l33.245,52.99l11.231,0l-33.845,-53.895c19.975,-1.734 33.845,-14.397 33.845,-35.051c-0,-21.482 -15,-35.427 -39.573,-35.427l-31.885,-0Zm11.005,8.97l18.317,-0c19.523,-0 30.905,10.402 30.905,26.457c-0,16.131 -11.382,26.533 -30.905,26.533l-18.317,0l-0,-52.99Z" style="fill:#a2b9cb;fill-rule:nonzero;"/><rect x="1655.56" y="490.55" width="11.005" height="124.373" style="fill:#a2b9cb;fill-rule:nonzero;"/><path d="M1725.66,500.575l0,114.348l11.005,0l0,-114.348l38.217,0l-0,-10.025l-87.438,-0l-0,10.025l38.216,0Z" style="fill:#a2b9cb;fill-rule:nonzero;"/><path d="M1830.17,561.104l0,53.819l11.005,0l0,-53.819l42.664,-70.554l-13.266,-0l-34.9,58.719l-34.9,-58.719l-13.267,-0l42.664,70.554Z" style="fill:#a2b9cb;fill-rule:nonzero;"/></svg>