<?xml version="1.0" encoding="UTF-8" standalone="no"?><!DOCTYPE svg PUBLIC "-//W3C//DTD SVG 1.1//EN" "http://www.w3.org/Graphics/SVG/1.1/DTD/svg11.dtd"><svg width="100%" height="100%" viewBox="0 0 463 155" version="1.1" xmlns="http://www.w3.org/2000/svg" xmlns:xlink="http://www.w3.org/1999/xlink" xml:space="preserve" xmlns:serif="http://www.serif.com/" style="fill-rule:evenodd;clip-rule:evenodd;stroke-linejoin:round;stroke-miterlimit:2;"><g><path d="M127.145,63.265c-0.019,-0.03 -0.039,-0.06 -0.058,-0.089c-9.755,-14.737 -26.281,-23.49 -43.981,-19.779c-21.687,4.547 -35.536,25.917 -30.907,47.691c4.629,21.774 25.994,35.76 47.68,31.212c6.81,-1.428 12.847,-4.514 17.781,-8.751c-7.587,9.71 -18.495,16.887 -31.478,19.609c-29.353,6.155 -58.27,-12.775 -64.535,-42.247c-6.266,-29.471 12.479,-58.395 41.832,-64.55c27.636,-5.794 55.344,10.364 63.666,36.904" style="fill:#0084b0;"/><path d="M105.329,146.389c-7.011,2.726 -14.546,4.472 -22.445,5.056c-42.29,3.129 -79.131,-28.214 -82.218,-69.947c-3.087,-41.733 28.74,-78.156 71.03,-81.284c30.305,-2.242 56.454,13.318 70.746,37.618c-13.364,-13.491 -30.102,-21.494 -52.189,-19.86c-40.026,2.961 -64.891,33.87 -62.257,69.481c2.634,35.611 34.808,62.301 71.803,59.564c1.868,-0.138 3.713,-0.349 5.53,-0.628Z" style="fill:#a2b9cb;"/><path d="M14.718,31.973c-3.775,10.17 -5.475,21.287 -4.623,32.801c3.173,42.897 40.577,75.147 83.473,71.974c21.981,-1.626 41.166,-12.239 54.224,-27.975c-5.667,12.497 -14.756,23.645 -26.976,31.917c-35.301,23.899 -83.444,14.809 -107.442,-20.286c-18.817,-27.519 -17.238,-62.907 1.344,-88.431Z" style="fill:#183859;"/></g><path d="M74.895,105.189l18.134,0c16.433,0 25.216,-10.767 25.216,-24.792c0,-13.529 -8.57,-23.941 -24.508,-23.941l-18.842,-0l0,48.733Zm9.492,-40.162l8.925,-0c10.413,-0 15.3,7.012 15.3,15.654c0,8.854 -5.029,15.937 -15.583,15.937l-8.642,0l0,-31.591Z" style="fill:#a2b9cb;fill-rule:nonzero;"/><path d="M139.005,86.064l6.799,-20.541l6.659,20.541l-13.458,0Zm26.531,38.751l102.124,-0l-0,-7.536l-94.794,-0l-20.687,-60.823l-12.324,-0l-16.819,48.841l9.818,-0l3.53,-11.229l18.7,0l10.452,30.747Z" style="fill:#a2b9cb;fill-rule:nonzero;"/><path d="M210.726,56.456l-38.038,-0l-2.266,8.642l16.362,-0l0,40.091l9.492,0l-0,-40.091l14.45,-0l-0,-8.642Z" style="fill:#a2b9cb;fill-rule:nonzero;"/><path d="M212.959,105.189l9.634,0l3.683,-11.121l18.7,0l3.612,11.121l10.059,0l-16.575,-48.733l-12.325,-0l-16.788,48.733Zm15.938,-19.125l6.8,-20.541l6.658,20.541l-13.458,0Z" style="fill:#a2b9cb;fill-rule:nonzero;"/><path d="M267.778,105.189l9.491,0l0,-20.258l15.938,-0l2.266,-8.571l-18.204,-0l0,-11.262l21.108,-0l2.338,-8.642l-32.937,-0l-0,48.733Z" style="fill:#a2b9cb;fill-rule:nonzero;"/><path d="M309.442,105.189l29.75,0l2.196,-8.642l-22.455,0l0,-40.091l-9.491,-0l-0,48.733Z" style="fill:#a2b9cb;fill-rule:nonzero;"/><path d="M369.062,63.893c10.909,0 16.646,8.288 16.646,16.788c-0,8.712 -5.737,17.071 -16.646,17.071c-10.908,-0 -16.646,-8.359 -16.646,-17.071c0,-8.5 5.738,-16.788 16.646,-16.788Zm0,-8.712c-17.212,-0 -26.35,11.971 -26.35,25.5c0,13.671 9.138,25.783 26.35,25.783c17.213,0 26.35,-12.112 26.35,-25.783c0,-13.529 -9.137,-25.5 -26.35,-25.5Z" style="fill:#a2b9cb;fill-rule:nonzero;"/><path d="M410.963,105.189l10.766,0l9.633,-34.708l9.492,34.708l10.979,0l11.121,-48.733l-9.846,-0l-7.225,35.346l-9.421,-35.346l-9.704,-0l-9.491,35.346l-7.154,-35.346l-10.13,-0l10.98,48.733Z" style="fill:#a2b9cb;fill-rule:nonzero;"/><path d="M273.764,142.317c1.537,3.238 5.554,5.843 10.185,5.843c5.047,0 9.28,-3.021 9.28,-8.394c0,-4.359 -2.804,-6.729 -8.973,-8.918c-4.305,-1.538 -6.205,-3.401 -6.205,-5.952c0,-2.768 2.081,-5.301 5.771,-5.301c2.786,0 4.903,1.448 5.952,2.931l1.719,-1.393c-1.158,-1.918 -3.926,-3.944 -7.617,-3.944c-4.92,0 -8.357,3.365 -8.357,7.725c-0,3.546 2.406,6.187 7.417,7.978c5.554,2.008 7.525,3.799 7.525,6.965c0,3.817 -3.184,5.879 -6.639,5.879c-3.401,0 -6.549,-1.972 -8.177,-4.685l-1.881,1.266Z" style="fill:#a2b9cb;fill-rule:nonzero;"/><path d="M313.274,147.582l0,-2.334l-12.356,-0l0,-11.452l11.922,0l-0,-2.333l-11.922,-0l0,-11.397l12.356,-0l0,-2.334l-14.997,-0l-0,29.85l14.997,-0Z" style="fill:#a2b9cb;fill-rule:nonzero;"/><path d="M331.837,148.16c3.744,0 7.109,-1.139 9.606,-3.093l-1.357,-2.135c-2.117,1.701 -4.975,2.623 -8.068,2.623c-7.707,0 -11.65,-5.644 -11.65,-12.88c0,-7.236 3.943,-12.881 11.65,-12.881c3.093,0 5.951,0.923 8.068,2.623l1.357,-2.134c-2.497,-1.954 -5.862,-3.094 -9.606,-3.094c-9.028,0 -14.345,6.73 -14.345,15.486c-0,8.756 5.317,15.485 14.345,15.485Z" style="fill:#a2b9cb;fill-rule:nonzero;"/><path d="M356.321,148.16c6.766,0 10.293,-3.889 10.293,-11.27l0,-19.158l-2.641,-0l0,18.597c0,6.187 -2.533,9.226 -7.652,9.226c-5.102,0 -7.653,-3.039 -7.653,-9.226l0,-18.597l-2.641,-0l0,19.158c0,7.381 3.546,11.27 10.294,11.27Z" style="fill:#a2b9cb;fill-rule:nonzero;"/><path d="M373.081,117.732l0,29.85l2.642,-0l-0,-12.718l3.834,-0l7.979,12.718l2.695,-0l-8.122,-12.935c4.794,-0.416 8.122,-3.456 8.122,-8.412c0,-5.156 -3.6,-8.503 -9.497,-8.503l-7.653,-0Zm2.642,2.153l4.396,-0c4.685,-0 7.417,2.496 7.417,6.35c-0,3.871 -2.732,6.368 -7.417,6.368l-4.396,-0l-0,-12.718Z" style="fill:#a2b9cb;fill-rule:nonzero;"/><rect x="397.334" y="117.732" width="2.641" height="29.85" style="fill:#a2b9cb;fill-rule:nonzero;"/><path d="M414.158,120.138l0,27.444l2.642,-0l-0,-27.444l9.172,0l-0,-2.406l-20.986,-0l0,2.406l9.172,0Z" style="fill:#a2b9cb;fill-rule:nonzero;"/><path d="M439.242,134.665l-0,12.917l2.641,-0l-0,-12.917l10.239,-16.933l-3.184,-0l-8.376,14.093l-8.376,-14.093l-3.184,-0l10.24,16.933Z" style="fill:#a2b9cb;fill-rule:nonzero;"/></svg>